<svg xmlns="http://www.w3.org/2000/svg" width="760" height="360">
<rect width="100%" height="100%" fill="white"/>
<text x="380.0" y="25" text-anchor="middle" font-family="Arial" font-size="18" font-weight="700">Retrieval score median by label</text>
<line x1="75" y1="290" x2="735" y2="290" stroke="#333"/>
<rect x="126.3" y="153.5" width="62.3" height="136.5" fill="#d62728"/>
<text x="157.1" y="148.5" text-anchor="middle" font-family="Arial" font-size="10">69</text>
<rect x="199.7" y="200.3" width="62.3" height="89.7" fill="#1f77b4"/>
<text x="230.5" y="195.3" text-anchor="middle" font-family="Arial" font-size="10">45</text>
<text x="185.0" y="308" text-anchor="middle" font-family="Arial" font-size="12">original naive</text>
<rect x="346.3" y="185.6" width="62.3" height="104.4" fill="#d62728"/>
<text x="377.1" y="180.6" text-anchor="middle" font-family="Arial" font-size="10">53</text>
<rect x="419.7" y="215.4" width="62.3" height="74.6" fill="#1f77b4"/>
<text x="450.5" y="210.4" text-anchor="middle" font-family="Arial" font-size="10">38</text>
<text x="405.0" y="308" text-anchor="middle" font-family="Arial" font-size="12">masked naive</text>
<rect x="566.3" y="45.0" width="62.3" height="245.0" fill="#d62728"/>
<text x="597.1" y="40.0" text-anchor="middle" font-family="Arial" font-size="10">124</text>
<rect x="639.7" y="223.3" width="62.3" height="66.7" fill="#1f77b4"/>
<text x="670.5" y="218.3" text-anchor="middle" font-family="Arial" font-size="10">34</text>
<text x="625.0" y="308" text-anchor="middle" font-family="Arial" font-size="12">masked advanced</text>
<rect x="580" y="55" width="12" height="12" fill="#d62728"/>
<text x="598" y="66" font-family="Arial" font-size="12">voicephishing</text>
<rect x="580" y="75" width="12" height="12" fill="#1f77b4"/>
<text x="598" y="86" font-family="Arial" font-size="12">bank_call</text>
</svg>